<svg xmlns="http://www.w3.org/2000/svg" viewBox="0 0 181.93 67.23"><defs><style>.cls-1{fill:#00325c;}.cls-2{fill:#00aece;}</style></defs><title>book Asset 1NEW LOGO 2019</title><g id="Layer_2" data-name="Layer 2"><g id="Layer_1-2" data-name="Layer 1"><path class="cls-1" d="M29,18.63H16.6c-4.49,0-5-2.25-5-3.95,0-3.52,1.83-4.95,6.32-4.95H42V0H16.54C5.26,0,0,4.63,0,14.55c0,9.34,5,13.68,15.73,13.68H26.79c4.35,0,5.75,1,5.75,4.27,0,2.69-1,4.14-6.38,4.14H1.8v9.73H27.65c11.25,0,16.48-4.53,16.48-14.25S39.75,18.63,29,18.63Z"/><polygon class="cls-1" points="81.86 0 68.74 31.76 55.92 0 43.34 0 63.55 46.37 74.42 46.37 93.79 0 81.86 0"/><path class="cls-1" d="M113.2,9.54h16.29V0H113C98.08,0,91.13,7.62,91.13,24c0,8.45,2.34,14.43,7.17,18.26s9.36,4.12,14.46,4.12h16.73V36.83H113.2c-6.74,0-9.44-2.5-9.71-9.15h26V18.14H103.6C104.18,12.28,107.25,9.54,113.2,9.54Z"/><path class="cls-1" d="M151.05,0,131.42,46.37h11.89l4-10.62h18.15l4.09,10.62h12.4L162.16,0ZM151,26l5.25-13.79L161.7,26Z"/><rect class="cls-2" x="1.51" y="55.21" width="180.42" height="12.02" rx="2.2"/></g></g></svg>